<svg width="346" height="292" viewBox="0 0 346 292" fill="none" xmlns="http://www.w3.org/2000/svg">
<g clip-path="url(#clip0)">
<path d="M230.027 86.1416C230.027 37.8908 217.281 4.28857 169 4.28857C120.719 4.28857 107.973 37.8912 107.973 86.1416C107.973 112.45 100.654 139.113 94 157.926H124.152L169 136.316L213.851 157.926H244C237.346 139.114 230.027 112.45 230.027 86.1416Z" fill="#424342"/>
<path d="M173.527 4.39249C172.054 4.32438 170.546 4.28857 169 4.28857C120.72 4.28857 107.973 37.8908 107.973 86.1416C107.973 112.45 100.654 139.113 94 157.926H103.054C109.708 139.113 117.028 112.45 117.028 86.1416C117.028 39.4357 128.972 6.4563 173.527 4.39249Z" fill="#333333"/>
<path d="M141.545 77.9884C151.092 86.2936 152.656 89.8342 169 89.8342C185.344 89.8342 186.908 86.2936 196.455 77.9884L180.146 66.1384H161.418L141.545 77.9884Z" fill="#F49D18"/>
<path d="M169 79.139C174.011 73.619 185.397 75.6714 199.753 78.6673C214.108 81.6632 214.864 69.4071 207.308 69.4071C182.627 69.4071 180.108 49.7971 169 49.7971C157.892 49.7971 155.373 69.4071 130.692 69.4071C123.136 69.4071 123.892 81.6632 138.247 78.6673C152.603 75.671 163.989 73.6183 169 79.139Z" fill="#FBBF0D"/>
<path d="M213.851 157.926H124.152C126.323 133.47 145.576 114.343 169 114.343C192.424 114.343 211.677 133.47 213.851 157.926Z" fill="#EEEEEC"/>
<path d="M139.338 58.9708C145.458 58.9708 150.42 53.6054 150.42 46.9869C150.42 40.3683 145.458 35.0029 139.338 35.0029C133.218 35.0029 128.257 40.3683 128.257 46.9869C128.257 53.6054 133.218 58.9708 139.338 58.9708Z" fill="#EEEEEC"/>
<path d="M139.338 51.4431C141.614 51.4431 143.459 49.448 143.459 46.9869C143.459 44.5258 141.614 42.5308 139.338 42.5308C137.062 42.5308 135.217 44.5258 135.217 46.9869C135.217 49.448 137.062 51.4431 139.338 51.4431Z" fill="#202020"/>
<path d="M198.662 58.9708C204.782 58.9708 209.743 53.6054 209.743 46.9869C209.743 40.3683 204.782 35.0029 198.662 35.0029C192.542 35.0029 187.58 40.3683 187.58 46.9869C187.58 53.6054 192.542 58.9708 198.662 58.9708Z" fill="#202020"/>
<path d="M198.662 51.4431C200.938 51.4431 202.783 49.448 202.783 46.9869C202.783 44.5258 200.938 42.5308 198.662 42.5308C196.386 42.5308 194.541 44.5258 194.541 46.9869C194.541 49.448 196.386 51.4431 198.662 51.4431Z" fill="#202020"/>
</g>
<g clip-path="url(#clip1)">
<path d="M136.027 165.142C136.027 116.891 123.281 83.2886 75 83.2886C26.7193 83.2886 13.9734 116.891 13.9734 165.142C13.9734 191.45 6.65361 218.113 0 236.926H30.1518L75 215.316L119.851 236.926H150C143.346 218.114 136.027 191.45 136.027 165.142Z" fill="#424342"/>
<path d="M79.5272 83.3925C78.0539 83.3244 76.5457 83.2886 75 83.2886C26.7196 83.2886 13.9734 116.891 13.9734 165.142C13.9734 191.45 6.65361 218.113 0 236.926H9.0542C15.7081 218.113 23.0276 191.45 23.0276 165.142C23.0279 118.436 34.972 85.4563 79.5272 83.3925Z" fill="#333333"/>
<path d="M47.5453 156.988C57.092 165.294 58.6562 168.834 75 168.834C91.3439 168.834 92.9083 165.294 102.455 156.988L86.146 145.138H67.418L47.5453 156.988Z" fill="#F49D18"/>
<path d="M75 158.139C80.0106 152.619 91.3972 154.671 105.753 157.667C120.108 160.663 120.864 148.407 113.308 148.407C88.6266 148.407 86.1082 128.797 75 128.797C63.8918 128.797 61.3731 148.407 36.6917 148.407C29.136 148.407 29.8916 160.663 44.2474 157.667C58.6028 154.671 69.9893 152.618 75 158.139Z" fill="#FBBF0D"/>
<path d="M119.851 236.926H30.1518C32.323 212.47 51.5757 193.343 75 193.343C98.4243 193.343 117.677 212.47 119.851 236.926Z" fill="#EEEEEC"/>
<path d="M45.3381 137.971C51.4583 137.971 56.4196 132.605 56.4196 125.987C56.4196 119.368 51.4583 114.003 45.3381 114.003C39.2179 114.003 34.2565 119.368 34.2565 125.987C34.2565 132.605 39.2179 137.971 45.3381 137.971Z" fill="#EEEEEC"/>
<path d="M45.3381 130.443C47.6138 130.443 49.4587 128.448 49.4587 125.987C49.4587 123.526 47.6138 121.531 45.3381 121.531C43.0623 121.531 41.2175 123.526 41.2175 125.987C41.2175 128.448 43.0623 130.443 45.3381 130.443Z" fill="#202020"/>
<path d="M104.662 137.971C110.782 137.971 115.743 132.605 115.743 125.987C115.743 119.368 110.782 114.003 104.662 114.003C98.5417 114.003 93.5804 119.368 93.5804 125.987C93.5804 132.605 98.5417 137.971 104.662 137.971Z" fill="#EEEEEC"/>
<path d="M104.662 130.443C106.938 130.443 108.783 128.448 108.783 125.987C108.783 123.526 106.938 121.531 104.662 121.531C102.386 121.531 100.541 123.526 100.541 125.987C100.541 128.448 102.386 130.443 104.662 130.443Z" fill="#202020"/>
</g>
<g clip-path="url(#clip2)">
<path d="M332.027 161.142C332.027 112.891 319.281 79.2886 271 79.2886C222.719 79.2886 209.973 112.891 209.973 161.142C209.973 187.45 202.654 214.113 196 232.926H226.152L271 211.316L315.851 232.926H346C339.346 214.114 332.027 187.45 332.027 161.142Z" fill="#424342"/>
<path d="M275.527 79.3925C274.054 79.3244 272.546 79.2886 271 79.2886C222.72 79.2886 209.973 112.891 209.973 161.142C209.973 187.45 202.654 214.113 196 232.926H205.054C211.708 214.113 219.028 187.45 219.028 161.142C219.028 114.436 230.972 81.4563 275.527 79.3925Z" fill="#333333"/>
<path d="M243.545 152.988C253.092 161.294 254.656 164.834 271 164.834C287.344 164.834 288.908 161.294 298.455 152.988L282.146 141.138H263.418L243.545 152.988Z" fill="#F49D18"/>
<path d="M271 154.139C276.011 148.619 287.397 150.671 301.753 153.667C316.108 156.663 316.864 144.407 309.308 144.407C284.627 144.407 282.108 124.797 271 124.797C259.892 124.797 257.373 144.407 232.692 144.407C225.136 144.407 225.892 156.663 240.247 153.667C254.603 150.671 265.989 148.618 271 154.139Z" fill="#FBBF0D"/>
<path d="M315.851 232.926H226.152C228.323 208.47 247.576 189.343 271 189.343C294.424 189.343 313.677 208.47 315.851 232.926Z" fill="#EEEEEC"/>
<path d="M241.338 133.971C247.458 133.971 252.42 128.605 252.42 121.987C252.42 115.368 247.458 110.003 241.338 110.003C235.218 110.003 230.257 115.368 230.257 121.987C230.257 128.605 235.218 133.971 241.338 133.971Z" fill="#EEEEEC"/>
<path d="M241.338 126.443C243.614 126.443 245.459 124.448 245.459 121.987C245.459 119.526 243.614 117.531 241.338 117.531C239.062 117.531 237.217 119.526 237.217 121.987C237.217 124.448 239.062 126.443 241.338 126.443Z" fill="#202020"/>
<path d="M300.662 133.971C306.782 133.971 311.743 128.605 311.743 121.987C311.743 115.368 306.782 110.003 300.662 110.003C294.542 110.003 289.58 115.368 289.58 121.987C289.58 128.605 294.542 133.971 300.662 133.971Z" fill="#EEEEEC"/>
<path d="M300.662 126.443C302.938 126.443 304.783 124.448 304.783 121.987C304.783 119.526 302.938 117.531 300.662 117.531C298.386 117.531 296.541 119.526 296.541 121.987C296.541 124.448 298.386 126.443 300.662 126.443Z" fill="#202020"/>
</g>
<g clip-path="url(#clip3)">
<path d="M245.027 215.142C245.027 166.891 232.281 133.289 184 133.289C135.719 133.289 122.973 166.891 122.973 215.142C122.973 241.45 115.654 268.113 109 286.926H139.152L184 265.316L228.851 286.926H259C252.346 268.114 245.027 241.45 245.027 215.142Z" fill="#424342"/>
<path d="M188.527 133.392C187.054 133.324 185.546 133.289 184 133.289C135.72 133.289 122.973 166.891 122.973 215.142C122.973 241.45 115.654 268.113 109 286.926H118.054C124.708 268.113 132.028 241.45 132.028 215.142C132.028 168.436 143.972 135.456 188.527 133.392Z" fill="#333333"/>
<path d="M156.545 206.988C166.092 215.294 167.656 218.834 184 218.834C200.344 218.834 201.908 215.294 211.455 206.988L195.146 195.138H176.418L156.545 206.988Z" fill="#F49D18"/>
<path d="M184 208.139C189.011 202.619 200.397 204.671 214.753 207.667C229.108 210.663 229.864 198.407 222.308 198.407C197.627 198.407 195.108 178.797 184 178.797C172.892 178.797 170.373 198.407 145.692 198.407C138.136 198.407 138.892 210.663 153.247 207.667C167.603 204.671 178.989 202.618 184 208.139Z" fill="#FBBF0D"/>
<path d="M228.851 286.926H139.152C141.323 262.47 160.576 243.343 184 243.343C207.424 243.343 226.677 262.47 228.851 286.926Z" fill="#EEEEEC"/>
<path d="M154.338 187.971C160.458 187.971 165.42 182.605 165.42 175.987C165.42 169.368 160.458 164.003 154.338 164.003C148.218 164.003 143.257 169.368 143.257 175.987C143.257 182.605 148.218 187.971 154.338 187.971Z" fill="#EEEEEC"/>
<path d="M154.338 180.443C156.614 180.443 158.459 178.448 158.459 175.987C158.459 173.526 156.614 171.531 154.338 171.531C152.062 171.531 150.217 173.526 150.217 175.987C150.217 178.448 152.062 180.443 154.338 180.443Z" fill="#202020"/>
<path d="M213.662 187.971C219.782 187.971 224.743 182.605 224.743 175.987C224.743 169.368 219.782 164.003 213.662 164.003C207.542 164.003 202.58 169.368 202.58 175.987C202.58 182.605 207.542 187.971 213.662 187.971Z" fill="#EEEEEC"/>
<path d="M213.662 180.443C215.938 180.443 217.783 178.448 217.783 175.987C217.783 173.526 215.938 171.531 213.662 171.531C211.386 171.531 209.541 173.526 209.541 175.987C209.541 178.448 211.386 180.443 213.662 180.443Z" fill="#202020"/>
</g>
<defs>
<clipPath id="clip0">
<rect width="150" height="162.215" fill="white" transform="translate(94)"/>
</clipPath>
<clipPath id="clip1">
<rect width="150" height="162.215" fill="white" transform="translate(0 79)"/>
</clipPath>
<clipPath id="clip2">
<rect width="150" height="162.215" fill="white" transform="translate(196 75)"/>
</clipPath>
<clipPath id="clip3">
<rect width="150" height="162.215" fill="white" transform="translate(109 129)"/>
</clipPath>
</defs>
</svg>
