<svg width="280" height="193" viewBox="0 0 280 193" fill="none" xmlns="http://www.w3.org/2000/svg">
<g clip-path="url(#clip0)">
<path d="M136.027 86.1416C136.027 37.8908 123.281 4.28857 75 4.28857C26.7193 4.28857 13.9734 37.8912 13.9734 86.1416C13.9734 112.45 6.65361 139.113 0 157.926H30.1518L75 136.316L119.851 157.926H150C143.346 139.114 136.027 112.45 136.027 86.1416Z" fill="#424342"/>
<path d="M79.5272 4.39249C78.0539 4.32438 76.5457 4.28857 75 4.28857C26.7196 4.28857 13.9734 37.8908 13.9734 86.1416C13.9734 112.45 6.65361 139.113 0 157.926H9.0542C15.7081 139.113 23.0276 112.45 23.0276 86.1416C23.0279 39.4357 34.972 6.4563 79.5272 4.39249Z" fill="#333333"/>
<path d="M47.5453 77.9884C57.092 86.2936 58.6561 89.8342 75 89.8342C91.3438 89.8342 92.9083 86.2936 102.455 77.9884L86.146 66.1384H67.4179L47.5453 77.9884Z" fill="#F49D18"/>
<path d="M75 79.139C80.0106 73.619 91.3972 75.6714 105.753 78.6673C120.108 81.6632 120.864 69.4071 113.308 69.4071C88.6266 69.4071 86.1082 49.7971 75 49.7971C63.8918 49.7971 61.3731 69.4071 36.6917 69.4071C29.136 69.4071 29.8916 81.6632 44.2474 78.6673C58.6028 75.671 69.9893 73.6183 75 79.139Z" fill="#FBBF0D"/>
<path d="M119.851 157.926H30.1517C32.3229 133.47 51.5757 114.343 75 114.343C98.4243 114.343 117.677 133.47 119.851 157.926Z" fill="#EEEEEC"/>
<path d="M45.3381 58.9708C51.4582 58.9708 56.4196 53.6054 56.4196 46.9869C56.4196 40.3683 51.4582 35.0029 45.3381 35.0029C39.2179 35.0029 34.2565 40.3683 34.2565 46.9869C34.2565 53.6054 39.2179 58.9708 45.3381 58.9708Z" fill="#EEEEEC"/>
<path d="M45.3381 51.4431C47.6138 51.4431 49.4587 49.448 49.4587 46.9869C49.4587 44.5258 47.6138 42.5308 45.3381 42.5308C43.0623 42.5308 41.2175 44.5258 41.2175 46.9869C41.2175 49.448 43.0623 51.4431 45.3381 51.4431Z" fill="#202020"/>
<path d="M104.662 58.9708C110.782 58.9708 115.743 53.6054 115.743 46.9869C115.743 40.3683 110.782 35.0029 104.662 35.0029C98.5418 35.0029 93.5804 40.3683 93.5804 46.9869C93.5804 53.6054 98.5418 58.9708 104.662 58.9708Z" fill="#EEEEEC"/>
<path d="M104.662 51.4431C106.938 51.4431 108.783 49.448 108.783 46.9869C108.783 44.5258 106.938 42.5308 104.662 42.5308C102.386 42.5308 100.541 44.5258 100.541 46.9869C100.541 49.448 102.386 51.4431 104.662 51.4431Z" fill="#202020"/>
</g>
<g clip-path="url(#clip1)">
<path d="M266.027 116.142C266.027 67.8908 253.281 34.2886 205 34.2886C156.719 34.2886 143.973 67.8912 143.973 116.142C143.973 142.45 136.654 169.113 130 187.926H160.152L205 166.316L249.851 187.926H280C273.346 169.114 266.027 142.45 266.027 116.142Z" fill="#424342"/>
<path d="M209.527 34.3925C208.054 34.3244 206.546 34.2886 205 34.2886C156.72 34.2886 143.973 67.8908 143.973 116.142C143.973 142.45 136.654 169.113 130 187.926H139.054C145.708 169.113 153.028 142.45 153.028 116.142C153.028 69.4357 164.972 36.4563 209.527 34.3925Z" fill="#333333"/>
<path d="M177.545 107.988C187.092 116.294 188.656 119.834 205 119.834C221.344 119.834 222.908 116.294 232.455 107.988L216.146 96.1384H197.418L177.545 107.988Z" fill="#F49D18"/>
<path d="M205 109.139C210.011 103.619 221.397 105.671 235.753 108.667C250.108 111.663 250.864 99.4071 243.308 99.4071C218.627 99.4071 216.108 79.7971 205 79.7971C193.892 79.7971 191.373 99.4071 166.692 99.4071C159.136 99.4071 159.892 111.663 174.247 108.667C188.603 105.671 199.989 103.618 205 109.139Z" fill="#FBBF0D"/>
<path d="M249.851 187.926H160.152C162.323 163.47 181.576 144.343 205 144.343C228.424 144.343 247.677 163.47 249.851 187.926Z" fill="#EEEEEC"/>
<path d="M175.338 88.9708C181.458 88.9708 186.42 83.6054 186.42 76.9869C186.42 70.3683 181.458 65.0029 175.338 65.0029C169.218 65.0029 164.257 70.3683 164.257 76.9869C164.257 83.6054 169.218 88.9708 175.338 88.9708Z" fill="#EEEEEC"/>
<path d="M175.338 81.4431C177.614 81.4431 179.459 79.448 179.459 76.9869C179.459 74.5258 177.614 72.5308 175.338 72.5308C173.062 72.5308 171.217 74.5258 171.217 76.9869C171.217 79.448 173.062 81.4431 175.338 81.4431Z" fill="#202020"/>
<path d="M234.662 88.9708C240.782 88.9708 245.743 83.6054 245.743 76.9869C245.743 70.3683 240.782 65.0029 234.662 65.0029C228.542 65.0029 223.58 70.3683 223.58 76.9869C223.58 83.6054 228.542 88.9708 234.662 88.9708Z" fill="#EEEEEC"/>
<path d="M234.662 81.4431C236.938 81.4431 238.783 79.448 238.783 76.9869C238.783 74.5258 236.938 72.5308 234.662 72.5308C232.386 72.5308 230.541 74.5258 230.541 76.9869C230.541 79.448 232.386 81.4431 234.662 81.4431Z" fill="#202020"/>
</g>
<defs>
<clipPath id="clip0">
<rect width="150" height="162.215" fill="white"/>
</clipPath>
<clipPath id="clip1">
<rect width="150" height="162.215" fill="white" transform="translate(130 30)"/>
</clipPath>
</defs>
</svg>
